<svg width="24" height="24" viewBox="0 0 24 24" fill="none" xmlns="http://www.w3.org/2000/svg">
<path d="M10.5 2.00003C10.4635 2.43905 10.5999 2.87498 10.8801 3.21494C11.1602 3.5549 11.5621 3.77201 12 3.82003C12.4111 3.78 12.7922 3.58729 13.068 3.27995C13.3439 2.97261 13.4945 2.57299 13.49 2.16003V2.00003H17C17.2457 1.99825 17.4834 2.08698 17.6679 2.24929C17.8523 2.41159 17.9705 2.63612 18 2.88003V21C18.0018 21.2457 17.9131 21.4834 17.7508 21.6679C17.5885 21.8523 17.3639 21.9706 17.12 22H13.5C13.5365 21.561 13.4002 21.1251 13.12 20.7851C12.8398 20.4452 12.4379 20.228 12 20.18C11.589 20.2201 11.2079 20.4128 10.932 20.7201C10.6562 21.0274 10.5056 21.4271 10.51 21.84V22H7.00003C6.75435 22.0018 6.51661 21.9131 6.33218 21.7508C6.14774 21.5885 6.0295 21.3639 6.00003 21.12V3.00003C5.99825 2.75435 6.08698 2.51661 6.24929 2.33218C6.41159 2.14774 6.63612 2.0295 6.88003 2.00003H10.5ZM9.66003 3.00003H7.00003V21H9.66003C9.80631 20.4875 10.1119 20.0349 10.5326 19.7077C10.9533 19.3805 11.4673 19.1957 12 19.18C12.5018 19.1944 12.9876 19.3594 13.3943 19.6537C13.8009 19.948 14.1096 20.3579 14.28 20.83L14.34 21H17V3.00003H14.34C14.1937 3.51253 13.8881 3.96517 13.4674 4.29238C13.0467 4.61959 12.5328 4.8044 12 4.82003C11.4983 4.80568 11.0124 4.64063 10.6058 4.34634C10.1991 4.05205 9.89049 3.64216 9.72003 3.17003L9.66003 3.00003ZM14 15.5C14.0657 15.4941 14.1319 15.5012 14.1948 15.5209C14.2577 15.5405 14.3162 15.5724 14.3668 15.6147C14.4174 15.6569 14.4592 15.7087 14.4897 15.7671C14.5203 15.8255 14.5391 15.8894 14.545 15.955C14.5509 16.0207 14.5439 16.0869 14.5242 16.1498C14.5045 16.2127 14.4726 16.2712 14.4304 16.3218C14.3881 16.3724 14.3363 16.4142 14.2779 16.4447C14.2195 16.4753 14.1557 16.4941 14.09 16.5H10C9.93437 16.5059 9.86818 16.4989 9.80526 16.4792C9.74234 16.4595 9.6839 16.4277 9.63329 16.3854C9.58268 16.3431 9.54089 16.2913 9.51031 16.2329C9.47972 16.1745 9.46094 16.1107 9.45503 16.045C9.44912 15.9794 9.4562 15.9132 9.47587 15.8503C9.49553 15.7873 9.5274 15.7289 9.56965 15.6783C9.6119 15.6277 9.66371 15.5859 9.72211 15.5553C9.78051 15.5247 9.84437 15.5059 9.91003 15.5H14ZM15 12.14V13H14.14V12.14H15ZM9.86003 12.14V13H9.00003V12.14H9.86003ZM12.43 10.43V12.14H13.29V13H10.71V12.14H11.57V10.43H12.43ZM10.71 11.29V12.14H9.86003V11.29H10.71ZM15 9.57003V11.29H14.14V12.14H13.29V10.43H14.14V9.57003H15ZM9.86003 10.43V11.29H9.00003V10.43H9.86003ZM11.57 9.57003V10.43H10.71V9.57003H11.57ZM13.29 9.57003V10.43H12.43V9.57003H13.29ZM10.71 8.71003V9.57003H9.00003V8.71003H10.71ZM13.29 7.86003V8.71003H12.43V9.57003H11.57V8.71003H12.43V7.86003H13.29ZM14.14 8.71003V9.57003H13.29V8.71003H14.14ZM12.43 7.00003V7.86003H11.57V8.71003H10.71V7.00003H12.43ZM9.86003 7.00003V7.86003H9.00003V7.00003H9.86003ZM15 7.00003V7.86003H13.29V7.00003H15Z" fill="#3E3E52"/>
</svg>
